<svg xmlns="http://www.w3.org/2000/svg" xmlns:xlink="http://www.w3.org/1999/xlink" width="400" zoomAndPan="magnify" viewBox="0 0 300 74.999997" height="100" preserveAspectRatio="xMidYMid meet" version="1.0"><defs><g/><clipPath id="id1"><path d="M 17 27 L 39 27 L 39 58.390625 L 17 58.390625 Z M 17 27 " clip-rule="nonzero"/></clipPath><clipPath id="id2"><path d="M 4 16.058594 L 26 16.058594 L 26 47 L 4 47 Z M 4 16.058594 " clip-rule="nonzero"/></clipPath></defs><g fill="#303030" fill-opacity="1"><g transform="translate(46.130253, 50.907638)"><g><path d="M 14.265625 0 C 11.960938 0 9.953125 -0.46875 8.234375 -1.40625 C 6.523438 -2.351562 5.210938 -3.625 4.296875 -5.21875 C 3.378906 -6.8125 2.921875 -8.519531 2.921875 -10.34375 C 2.921875 -11.914062 3.691406 -12.703125 5.234375 -12.703125 C 6.785156 -12.703125 7.59375 -12.023438 7.65625 -10.671875 C 7.6875 -8.660156 8.34375 -7.085938 9.625 -5.953125 C 10.914062 -4.816406 12.460938 -4.25 14.265625 -4.25 C 15.929688 -4.25 17.320312 -4.632812 18.4375 -5.40625 C 19.550781 -6.175781 20.109375 -7.285156 20.109375 -8.734375 C 20.109375 -9.835938 19.789062 -10.742188 19.15625 -11.453125 C 18.53125 -12.160156 17.722656 -12.734375 16.734375 -13.171875 C 15.742188 -13.609375 14.460938 -14.066406 12.890625 -14.546875 C 11.128906 -15.046875 9.578125 -15.570312 8.234375 -16.125 C 6.898438 -16.675781 5.664062 -17.585938 4.53125 -18.859375 C 3.394531 -20.140625 2.828125 -21.800781 2.828125 -23.84375 C 2.828125 -25.695312 3.316406 -27.347656 4.296875 -28.796875 C 5.273438 -30.242188 6.597656 -31.378906 8.265625 -32.203125 C 9.929688 -33.023438 11.738281 -33.4375 13.6875 -33.4375 C 15.738281 -33.4375 17.585938 -32.992188 19.234375 -32.109375 C 20.890625 -31.222656 22.1875 -30.0625 23.125 -28.625 C 24.070312 -27.195312 24.546875 -25.679688 24.546875 -24.078125 C 24.546875 -23.265625 24.359375 -22.675781 23.984375 -22.3125 C 23.609375 -21.945312 23.039062 -21.765625 22.28125 -21.765625 C 21.46875 -21.765625 20.894531 -21.9375 20.5625 -22.28125 C 20.226562 -22.632812 20.015625 -23.15625 19.921875 -23.84375 C 19.859375 -25.320312 19.257812 -26.582031 18.125 -27.625 C 17 -28.664062 15.519531 -29.1875 13.6875 -29.1875 C 11.894531 -29.1875 10.425781 -28.679688 9.28125 -27.671875 C 8.132812 -26.660156 7.5625 -25.367188 7.5625 -23.796875 C 7.5625 -22.785156 7.859375 -21.972656 8.453125 -21.359375 C 9.046875 -20.753906 9.800781 -20.269531 10.71875 -19.90625 C 11.632812 -19.539062 13.066406 -19.0625 15.015625 -18.46875 C 16.679688 -17.957031 18.179688 -17.378906 19.515625 -16.734375 C 20.859375 -16.085938 22.070312 -15.113281 23.15625 -13.8125 C 24.25 -12.507812 24.796875 -10.847656 24.796875 -8.828125 C 24.796875 -7.066406 24.335938 -5.515625 23.421875 -4.171875 C 22.503906 -2.835938 21.242188 -1.804688 19.640625 -1.078125 C 18.035156 -0.359375 16.242188 0 14.265625 0 Z M 14.265625 0 "/></g></g></g><g fill="#303030" fill-opacity="1"><g transform="translate(71.998005, 50.907638)"><g><path d="M 25.265625 -3.78125 C 25.734375 -3.71875 26.097656 -3.554688 26.359375 -3.296875 C 26.628906 -3.046875 26.765625 -2.625 26.765625 -2.03125 C 26.765625 -1.46875 26.625 -0.992188 26.34375 -0.609375 C 26.0625 -0.234375 25.671875 -0.046875 25.171875 -0.046875 C 23.878906 -0.046875 22.910156 -0.234375 22.265625 -0.609375 C 21.617188 -0.992188 21.03125 -1.703125 20.5 -2.734375 C 19.175781 -0.597656 16.71875 0.46875 13.125 0.46875 C 9.476562 0.46875 6.785156 -0.640625 5.046875 -2.859375 C 3.316406 -5.078125 2.453125 -7.835938 2.453125 -11.140625 C 2.453125 -13.347656 2.890625 -15.378906 3.765625 -17.234375 C 4.648438 -19.085938 5.941406 -20.566406 7.640625 -21.671875 C 9.347656 -22.773438 11.332031 -23.328125 13.59375 -23.328125 C 15.039062 -23.328125 16.320312 -23.039062 17.4375 -22.46875 C 18.5625 -21.90625 19.40625 -21.132812 19.96875 -20.15625 L 20.109375 -21.34375 C 20.234375 -22.476562 20.910156 -23.046875 22.140625 -23.046875 C 22.960938 -23.046875 23.546875 -22.863281 23.890625 -22.5 C 24.234375 -22.132812 24.375 -21.6875 24.3125 -21.15625 C 24 -18.789062 23.8125 -17.007812 23.75 -15.8125 C 23.65625 -14.6875 23.609375 -13.207031 23.609375 -11.375 L 23.609375 -8.265625 C 23.609375 -6.628906 23.691406 -5.492188 23.859375 -4.859375 C 24.035156 -4.234375 24.503906 -3.875 25.265625 -3.78125 Z M 18.984375 -8.265625 C 19.015625 -9.679688 19.03125 -11.617188 19.03125 -14.078125 C 19.03125 -15.359375 18.753906 -16.410156 18.203125 -17.234375 C 17.648438 -18.054688 16.972656 -18.65625 16.171875 -19.03125 C 15.367188 -19.40625 14.554688 -19.59375 13.734375 -19.59375 C 12.316406 -19.59375 11.113281 -19.175781 10.125 -18.34375 C 9.132812 -17.507812 8.394531 -16.445312 7.90625 -15.15625 C 7.414062 -13.863281 7.171875 -12.523438 7.171875 -11.140625 C 7.171875 -9.035156 7.664062 -7.203125 8.65625 -5.640625 C 9.65625 -4.085938 11.207031 -3.3125 13.3125 -3.3125 C 14.976562 -3.3125 16.332031 -3.734375 17.375 -4.578125 C 18.414062 -5.429688 18.953125 -6.660156 18.984375 -8.265625 Z M 18.984375 -8.265625 "/></g></g></g><g fill="#303030" fill-opacity="1"><g transform="translate(99.565134, 50.907638)"><g><path d="M 12.375 -0.1875 C 9.882812 -0.1875 7.410156 -3.601562 4.953125 -10.4375 C 4.203125 -12.601562 3.554688 -14.769531 3.015625 -16.9375 C 2.484375 -19.113281 2.21875 -20.660156 2.21875 -21.578125 C 2.21875 -22.304688 2.429688 -22.847656 2.859375 -23.203125 C 3.285156 -23.566406 3.859375 -23.75 4.578125 -23.75 C 5.179688 -23.75 5.6875 -23.59375 6.09375 -23.28125 C 6.5 -22.96875 6.75 -22.507812 6.84375 -21.90625 C 7.21875 -19.070312 7.941406 -15.925781 9.015625 -12.46875 C 9.617188 -10.613281 10.257812 -8.953125 10.9375 -7.484375 C 11.613281 -6.015625 12.09375 -5.28125 12.375 -5.28125 C 12.6875 -5.28125 13.203125 -6.015625 13.921875 -7.484375 C 14.648438 -8.953125 15.34375 -10.628906 16 -12.515625 C 16.726562 -14.742188 17.253906 -16.570312 17.578125 -18 C 17.910156 -19.4375 18.160156 -20.800781 18.328125 -22.09375 C 18.390625 -22.664062 18.625 -23.125 19.03125 -23.46875 C 19.4375 -23.8125 19.988281 -23.984375 20.6875 -23.984375 C 21.40625 -23.984375 21.96875 -23.78125 22.375 -23.375 C 22.789062 -22.96875 23 -22.398438 23 -21.671875 C 23 -20.722656 22.722656 -19.210938 22.171875 -17.140625 C 21.617188 -15.066406 20.914062 -12.894531 20.0625 -10.625 C 18.769531 -7.257812 17.492188 -4.675781 16.234375 -2.875 C 14.984375 -1.082031 13.695312 -0.1875 12.375 -0.1875 Z M 12.375 -0.1875 "/></g></g></g><g fill="#303030" fill-opacity="1"><g transform="translate(123.02545, 50.907638)"><g><path d="M 12.375 -0.1875 C 9.882812 -0.1875 7.410156 -3.601562 4.953125 -10.4375 C 4.203125 -12.601562 3.554688 -14.769531 3.015625 -16.9375 C 2.484375 -19.113281 2.21875 -20.660156 2.21875 -21.578125 C 2.21875 -22.304688 2.429688 -22.847656 2.859375 -23.203125 C 3.285156 -23.566406 3.859375 -23.75 4.578125 -23.75 C 5.179688 -23.75 5.6875 -23.59375 6.09375 -23.28125 C 6.5 -22.96875 6.75 -22.507812 6.84375 -21.90625 C 7.21875 -19.070312 7.941406 -15.925781 9.015625 -12.46875 C 9.617188 -10.613281 10.257812 -8.953125 10.9375 -7.484375 C 11.613281 -6.015625 12.09375 -5.28125 12.375 -5.28125 C 12.6875 -5.28125 13.203125 -6.015625 13.921875 -7.484375 C 14.648438 -8.953125 15.34375 -10.628906 16 -12.515625 C 16.726562 -14.742188 17.253906 -16.570312 17.578125 -18 C 17.910156 -19.4375 18.160156 -20.800781 18.328125 -22.09375 C 18.390625 -22.664062 18.625 -23.125 19.03125 -23.46875 C 19.4375 -23.8125 19.988281 -23.984375 20.6875 -23.984375 C 21.40625 -23.984375 21.96875 -23.78125 22.375 -23.375 C 22.789062 -22.96875 23 -22.398438 23 -21.671875 C 23 -20.722656 22.722656 -19.210938 22.171875 -17.140625 C 21.617188 -15.066406 20.914062 -12.894531 20.0625 -10.625 C 18.769531 -7.257812 17.492188 -4.675781 16.234375 -2.875 C 14.984375 -1.082031 13.695312 -0.1875 12.375 -0.1875 Z M 12.375 -0.1875 "/></g></g></g><g fill="#303030" fill-opacity="1"><g transform="translate(146.485763, 50.907638)"><g><path d="M 10.390625 12.328125 C 9.691406 12.328125 9.109375 12.113281 8.640625 11.6875 C 8.171875 11.257812 7.9375 10.75 7.9375 10.15625 C 7.9375 9.875 8 9.601562 8.125 9.34375 C 9.570312 5.601562 10.957031 1.875 12.28125 -1.84375 C 10.925781 -2.75 9.546875 -4.328125 8.140625 -6.578125 C 6.742188 -8.835938 5.492188 -11.328125 4.390625 -14.046875 C 3.285156 -16.765625 2.46875 -19.242188 1.9375 -21.484375 C 1.875 -21.734375 1.84375 -21.96875 1.84375 -22.1875 C 1.84375 -22.726562 2.050781 -23.171875 2.46875 -23.515625 C 2.894531 -23.859375 3.457031 -24.03125 4.15625 -24.03125 C 4.75 -24.03125 5.179688 -23.90625 5.453125 -23.65625 C 5.722656 -23.40625 5.921875 -23.007812 6.046875 -22.46875 C 8.753906 -13.40625 11.347656 -8.039062 13.828125 -6.375 C 14.929688 -10.15625 16.394531 -15.601562 18.21875 -22.71875 C 18.382812 -23.25 18.609375 -23.625 18.890625 -23.84375 C 19.171875 -24.0625 19.59375 -24.171875 20.15625 -24.171875 C 20.914062 -24.171875 21.523438 -24.003906 21.984375 -23.671875 C 22.441406 -23.347656 22.703125 -22.914062 22.765625 -22.375 C 22.796875 -22.25 22.78125 -22.078125 22.71875 -21.859375 C 21.769531 -18.085938 20.914062 -14.847656 20.15625 -12.140625 C 19.40625 -9.429688 18.554688 -6.675781 17.609375 -3.875 C 16.890625 -1.695312 16 0.898438 14.9375 3.921875 C 13.882812 6.941406 13.046875 9.238281 12.421875 10.8125 C 12.234375 11.3125 11.988281 11.6875 11.6875 11.9375 C 11.382812 12.195312 10.953125 12.328125 10.390625 12.328125 Z M 10.390625 12.328125 "/></g></g></g><g fill="#303030" fill-opacity="1"><g transform="translate(173.220049, 52.381582)"><g><path d="M 4.421875 0 L 6.523438 0 C 6.433594 -4.957031 6.433594 -10.050781 6.433594 -15.546875 C 6.433594 -19.34375 6.433594 -23.808594 6.476562 -27.5625 L 7.683594 -27.5625 L 16.082031 0 L 18.226562 0 L 26.488281 -27.5625 L 27.785156 -27.5625 L 27.785156 -15.097656 C 27.785156 -10.542969 27.742188 -2.011719 27.742188 0 L 29.796875 0 C 29.796875 -5.582031 29.75 -11.210938 29.75 -16.796875 C 29.75 -20.726562 29.75 -26.980469 29.839844 -31.269531 L 25.640625 -31.269531 L 17.152344 -3.171875 L 17.019531 -3.171875 L 8.578125 -31.269531 L 4.378906 -31.269531 C 4.511719 -26.890625 4.46875 -20.636719 4.46875 -16.796875 C 4.46875 -11.210938 4.46875 -4.378906 4.421875 0 Z M 4.421875 0 "/></g></g></g><g fill="#303030" fill-opacity="1"><g transform="translate(207.432966, 52.381582)"><g><path d="M 11.390625 0.445312 C 17.019531 0.445312 20.816406 -3.261719 20.816406 -11.480469 C 20.816406 -19.832031 17.019531 -23.585938 11.390625 -23.585938 C 5.808594 -23.585938 1.964844 -19.789062 1.964844 -11.480469 C 1.964844 -3.304688 5.808594 0.445312 11.390625 0.445312 Z M 11.390625 -2.277344 C 6.925781 -2.277344 3.976562 -4.421875 3.976562 -11.480469 C 3.976562 -18.671875 6.925781 -20.859375 11.390625 -20.859375 C 15.859375 -20.859375 18.894531 -18.671875 18.894531 -11.480469 C 18.894531 -4.421875 15.859375 -2.277344 11.390625 -2.277344 Z M 11.390625 -2.277344 "/></g></g></g><g fill="#303030" fill-opacity="1"><g transform="translate(230.211801, 52.381582)"><g><path d="M 7.90625 0 L 11.480469 0 L 18.539062 -22.960938 L 16.394531 -22.960938 L 10.320312 -2.902344 L 9.066406 -2.902344 L 2.992188 -22.960938 L 0.847656 -22.960938 Z M 7.90625 0 "/></g></g></g><g fill="#303030" fill-opacity="1"><g transform="translate(249.596137, 52.381582)"><g><path d="M 20.101562 -11.792969 C 20.101562 -17.867188 17.914062 -23.585938 11.257812 -23.585938 C 6.074219 -23.585938 1.964844 -19.832031 1.964844 -11.523438 C 1.964844 -3.351562 6.03125 0.445312 12.105469 0.445312 C 14.921875 0.445312 17.152344 -0.222656 18.984375 -0.984375 L 19.074219 -3.527344 C 17.199219 -2.769531 15.054688 -2.234375 12.015625 -2.234375 C 7.460938 -2.234375 4.199219 -4.289062 3.929688 -10.765625 L 20.101562 -10.765625 Z M 3.976562 -12.953125 C 4.421875 -19.03125 7.550781 -20.90625 11.4375 -20.90625 C 15.367188 -20.90625 18.179688 -18.003906 18.179688 -12.953125 Z M 3.976562 -12.953125 "/></g></g></g><g fill="#303030" fill-opacity="1"><g transform="translate(271.437018, 52.381582)"><g><path d="M 8.753906 0.445312 C 14.070312 0.445312 17.378906 -2.054688 17.378906 -6.164062 C 17.378906 -10.140625 14.875 -11.613281 9.203125 -12.640625 C 5.226562 -13.355469 4.15625 -14.964844 4.15625 -16.976562 C 4.15625 -19.566406 6.210938 -20.859375 9.246094 -20.859375 C 12.328125 -20.859375 14.25 -20.324219 15.8125 -19.609375 L 15.722656 -22.113281 C 13.980469 -22.960938 12.238281 -23.542969 9.46875 -23.542969 C 4.46875 -23.542969 2.097656 -20.816406 2.097656 -17.109375 C 2.097656 -13.9375 3.441406 -11.703125 8.667969 -10.808594 C 12.730469 -10.09375 15.277344 -9.246094 15.277344 -6.164062 C 15.277344 -3.304688 12.6875 -2.234375 8.933594 -2.234375 C 6.03125 -2.234375 3.128906 -2.726562 1.429688 -3.484375 L 1.519531 -0.984375 C 3.351562 -0.132812 6.03125 0.445312 8.753906 0.445312 Z M 8.753906 0.445312 "/></g></g></g><g clip-path="url(#id1)"><path fill="#00a182" d="M 38.054688 39.816406 L 34.984375 36.832031 L 25.277344 27.765625 L 21.09375 31.804688 C 20.710938 32.332031 20.738281 33.046875 21.171875 33.542969 L 24.996094 36.890625 L 24.984375 36.898438 L 29.097656 40.890625 C 29.582031 41.441406 29.570312 42.257812 29.058594 42.785156 L 17.976562 53.496094 L 23.015625 58.386719 L 38.054688 43.859375 C 39.207031 42.742188 39.210938 40.933594 38.054688 39.808594 Z M 38.054688 39.816406 " fill-opacity="1" fill-rule="evenodd"/></g><g clip-path="url(#id2)"><path fill="#fac245" d="M 4.996094 34.636719 L 8.066406 37.613281 L 17.777344 46.679688 L 21.960938 42.636719 C 22.339844 42.113281 22.3125 41.394531 21.882812 40.898438 L 18.054688 37.546875 L 18.070312 37.539062 L 13.957031 33.542969 C 13.472656 32.996094 13.488281 32.179688 13.996094 31.652344 L 25.078125 20.9375 L 20.039062 16.058594 L 5 30.589844 C 3.847656 31.703125 3.847656 33.515625 5 34.636719 Z M 4.996094 34.636719 " fill-opacity="1" fill-rule="evenodd"/></g></svg>